<svg width="20" height="21" viewBox="0 0 20 21" fill="none" xmlns="http://www.w3.org/2000/svg">
<path d="M16.1922 17.5353C14.5715 17.5353 12.9665 17.1507 11.3773 16.3814C9.78809 15.6122 8.3693 14.6034 7.12091 13.355C5.87251 12.1066 4.86236 10.6892 4.09047 9.10262C3.31857 7.5161 2.93262 5.91247 2.93262 4.29175C2.93262 4.04175 3.01595 3.83341 3.18262 3.66675C3.34928 3.50008 3.55762 3.41675 3.80762 3.41675H6.52551C6.74133 3.41675 6.92964 3.48326 7.09043 3.61627C7.25121 3.74928 7.35083 3.92103 7.3893 4.1315L7.86687 6.58339C7.89998 6.78852 7.89651 6.97495 7.85645 7.14269C7.81638 7.31042 7.72851 7.45679 7.59283 7.58179L5.67616 9.45519C6.33428 10.5727 7.11901 11.5823 8.03035 12.484C8.94167 13.3857 9.97319 14.1721 11.1249 14.843L12.9871 12.9488C13.1228 12.8131 13.2833 12.7167 13.4686 12.6595C13.654 12.6024 13.8439 12.5904 14.0383 12.6235L16.3524 13.0946C16.5629 13.1416 16.7346 13.2434 16.8676 13.3999C17.0007 13.5564 17.0672 13.7426 17.0672 13.9584V16.6603C17.0672 16.9103 16.9838 17.1186 16.8172 17.2853C16.6505 17.452 16.4422 17.5353 16.1922 17.5353ZM5.07683 8.27252L6.56401 6.84944C6.59072 6.82806 6.60808 6.79868 6.6161 6.76129C6.62411 6.72389 6.62277 6.68917 6.61208 6.65712L6.24991 4.79494C6.23921 4.7522 6.22051 4.72015 6.19381 4.69879C6.1671 4.67742 6.13237 4.66673 6.08964 4.66673H4.3076C4.27554 4.66673 4.24883 4.67742 4.22745 4.69879C4.20609 4.72015 4.19541 4.74686 4.19541 4.77892C4.23813 5.34836 4.33135 5.92689 4.47505 6.5145C4.61875 7.10211 4.81934 7.68812 5.07683 8.27252ZM15.705 16.2597C15.7371 16.2597 15.7638 16.249 15.7851 16.2276C15.8065 16.2062 15.8172 16.1795 15.8172 16.1475V14.3943C15.8172 14.3516 15.8065 14.3168 15.7851 14.2901C15.7638 14.2634 15.7317 14.2447 15.689 14.234L13.939 13.8782C13.9069 13.8676 13.8789 13.8662 13.8548 13.8742C13.8308 13.8823 13.8054 13.8996 13.7787 13.9263L12.2947 15.4263C12.8471 15.6838 13.4232 15.8807 14.0231 16.0169C14.623 16.1531 15.1836 16.234 15.705 16.2597Z" fill="white"/>
</svg>
