<svg width="95" height="95" viewBox="0 0 95 95" fill="none" xmlns="http://www.w3.org/2000/svg">
<path d="M78.5047 54.2021H73.6562" stroke="#0162A7" stroke-width="2.66667" stroke-miterlimit="10" stroke-linecap="round" stroke-linejoin="round"/>
<path d="M32.9001 71.7333C36 71.7333 38.5131 69.2203 38.5131 66.1203C38.5131 63.0203 36 60.5073 32.9001 60.5073C29.8001 60.5073 27.2871 63.0203 27.2871 66.1203C27.2871 69.2203 29.8001 71.7333 32.9001 71.7333Z" stroke="#0162A7" stroke-width="2.66667" stroke-miterlimit="10" stroke-linecap="round" stroke-linejoin="round"/>
<path d="M63.6266 71.7333C66.7266 71.7333 69.2396 69.2203 69.2396 66.1203C69.2396 63.0203 66.7266 60.5073 63.6266 60.5073C60.5267 60.5073 58.0137 63.0203 58.0137 66.1203C58.0137 69.2203 60.5267 71.7333 63.6266 71.7333Z" stroke="#0162A7" stroke-width="2.66667" stroke-miterlimit="10" stroke-linecap="round" stroke-linejoin="round"/>
<path d="M33.7935 36.7993L37.4601 40.4659M37.4601 40.4659L41.1763 36.7498M37.4601 40.4659V49.5761M45.8038 41.235L42.1371 44.9016M42.1371 44.9016L45.8533 48.6178M42.1371 44.9016H32.7221M29.0554 41.235L32.7221 44.9016M32.7221 44.9016L29.0059 48.6178M41.1763 53.2426L37.5096 49.5761L33.7935 53.2922" stroke="#0162A7" stroke-width="3.2" stroke-miterlimit="10" stroke-linecap="round" stroke-linejoin="round"/>
<path d="M34.7935 26.1773C34.7935 25.435 34.1917 24.8333 33.4495 24.8333H26.924C20.6147 24.8333 15.5 29.9479 15.5 36.2572V56.0402C15.5 62.3495 20.6147 67.4642 26.924 67.4642H27.2854C28.0276 67.4642 28.6294 66.8624 28.6294 66.1202C28.6294 65.3779 28.0276 64.7762 27.2854 64.7762H26.924C22.0992 64.7762 18.188 60.8649 18.188 56.0402V36.2572C18.188 31.4325 22.0992 27.5213 26.924 27.5213H33.4495C34.1917 27.5213 34.7935 26.9195 34.7935 26.1773Z" fill="#0162A7"/>
<path fill-rule="evenodd" clip-rule="evenodd" d="M41.5135 26.1773C41.5135 26.9195 42.1152 27.5213 42.8575 27.5213H50.4688C53.8911 27.5213 56.6655 30.2956 56.6655 33.718V56.0402C56.6655 60.8649 52.7543 64.7762 47.9295 64.7762H38.5113C37.7691 64.7762 37.1673 65.3779 37.1673 66.1202C37.1673 66.8624 37.7691 67.4642 38.5113 67.4642H47.9295C54.2388 67.4642 59.3535 62.3495 59.3535 56.0402V47.2147H72.416C75.3148 48.7116 77.1589 51.7116 77.1589 54.9841V56.8547C77.1589 61.2296 73.6124 64.7762 69.2375 64.7762C68.4952 64.7762 67.8935 65.3779 67.8935 66.1202C67.8935 66.8624 68.4952 67.4642 69.2375 67.4642C75.0969 67.4642 79.8469 62.7141 79.8469 56.8547V54.9841C79.8469 50.7969 77.5443 46.9612 73.908 44.9642L73.1213 41.3612C71.9758 36.1145 67.3306 32.374 61.9603 32.374H59.2525C58.6047 28.1048 54.9188 24.8333 50.4688 24.8333H42.8575C42.1152 24.8333 41.5135 25.435 41.5135 26.1773ZM59.3535 44.5267V35.062H61.9603C66.067 35.062 69.6192 37.9224 70.4952 41.9345L71.0612 44.5267H59.3535Z" fill="#0162A7"/>
</svg>
