<svg width="57" height="16" viewBox="0 0 57 16" fill="none" xmlns="http://www.w3.org/2000/svg">
<g id="click 1" clip-path="url(#clip0_97_235)">
<g id="2180368684240">
<path id="Exclusion 1" d="M7.97882 15.9999C5.24221 16.0171 1.53306 12.3448 0.480295 9.95901V9.95044L0.458999 9.90187C-0.0748357 8.62325 -0.199066 7.55179 0.38801 6.15102C1.28105 4.01238 5.77818 -0.955653 9.02307 0.161529C11.3423 0.959414 20.8661 6.80462 11.7263 14.2013C10.555 15.1428 9.37162 15.9921 7.97882 15.9999ZM3.87852 9.34685C4.93341 11.2041 7.30798 13.372 9.17072 12.1698C12.9771 9.71329 12.9246 7.34321 10.8794 5.29742C8.50343 2.92163 7.01338 3.32664 5.11869 5.31457C4.67004 5.7853 4.29167 6.09388 3.8409 6.97177C3.51648 7.60679 3.44975 8.59397 3.87852 9.34756V9.34685Z" fill="#53B7D1"/>
</g>
<path id="Path 1475" d="M24.9579 11.1777C25.3186 11.1777 25.6513 11.1711 25.9559 11.1578C26.2605 11.1445 26.5737 11.1158 26.8955 11.0716C26.9181 11.0662 26.9417 11.0652 26.9648 11.0685C26.9879 11.0718 27.0101 11.0793 27.03 11.0907C27.0499 11.1021 27.0672 11.117 27.0808 11.1347C27.0945 11.1524 27.1041 11.1724 27.1093 11.1936C27.1144 11.2155 27.1144 11.2381 27.1093 11.26V12.2553C27.1093 12.3695 27.0335 12.4489 26.8819 12.4936C26.5098 12.6006 26.1281 12.6759 25.7413 12.7185C25.3309 12.7702 24.9172 12.7968 24.503 12.7981C23.8374 12.8154 23.1744 12.712 22.5512 12.4936C22.0453 12.3073 21.5993 12.0032 21.2559 11.6104C20.907 11.1943 20.6591 10.7128 20.5295 10.199C20.37 9.57862 20.2933 8.94232 20.3013 8.3045V7.69535C20.2935 7.05792 20.3677 6.4219 20.5223 5.80089C20.6473 5.28791 20.8906 4.80633 21.2352 4.3895C21.5748 3.996 22.0188 3.6918 22.5234 3.50696C23.1466 3.28863 23.8096 3.18519 24.4752 3.20239C25.2501 3.20736 26.0196 3.32352 26.7565 3.54678C26.8219 3.5618 26.8813 3.59405 26.9275 3.63967C26.9582 3.68283 26.9732 3.73399 26.9703 3.78566V4.73986C26.9778 4.78231 26.967 4.8258 26.9403 4.86093C26.9137 4.89606 26.8732 4.92002 26.8277 4.92764C26.8042 4.93232 26.7799 4.93232 26.7565 4.92764C26.4903 4.89314 26.2009 4.8666 25.8882 4.84802C25.5755 4.82944 25.2575 4.82081 24.9343 4.82214C24.544 4.81209 24.1551 4.87062 23.788 4.99466C23.4873 5.10392 23.2275 5.29287 23.0409 5.53812C22.8355 5.81898 22.6972 6.13758 22.6353 6.47241C22.548 6.91155 22.5074 7.35763 22.5141 7.80418V8.21492C22.5072 8.65965 22.549 9.10388 22.6389 9.54072C22.7053 9.87491 22.8486 10.1918 23.0588 10.4697C23.2532 10.7121 23.5174 10.8982 23.8208 11.0065C24.1862 11.1296 24.573 11.1878 24.9614 11.1784L24.9579 11.1777ZM28.7596 3.57133C28.7596 3.42932 28.8309 3.35899 28.9735 3.35899H30.7386C30.7913 3.35197 30.8449 3.36474 30.8875 3.39448C30.9302 3.42421 30.9584 3.46849 30.966 3.51758C30.9688 3.5354 30.9688 3.55351 30.966 3.57133V10.4219C30.9504 10.6212 31.0001 10.8202 31.1086 10.9926C31.1835 11.0639 31.2753 11.1179 31.3767 11.1502C31.4781 11.1825 31.5863 11.1921 31.6924 11.1784H35.0657C35.0919 11.1748 35.1185 11.1761 35.1441 11.1822C35.1697 11.1882 35.1938 11.1989 35.2149 11.2137C35.236 11.2284 35.2538 11.2469 35.2672 11.268C35.2807 11.2892 35.2895 11.3126 35.2932 11.337C35.296 11.3546 35.296 11.3725 35.2932 11.3901V12.3708C35.2932 12.5385 35.2126 12.6269 35.0515 12.6362C34.5287 12.6805 33.9308 12.7181 33.2579 12.749C32.5849 12.78 31.8873 12.7955 31.1649 12.7955C30.7843 12.802 30.4043 12.7664 30.0328 12.6893C29.7582 12.6343 29.5017 12.5187 29.285 12.3522C29.0912 12.191 28.9505 11.9818 28.8794 11.749C28.7917 11.4513 28.7511 11.1433 28.7589 10.8347L28.7596 3.57133ZM38.8255 12.41C38.8302 12.4406 38.8273 12.4719 38.8168 12.5013C38.8063 12.5307 38.7886 12.5574 38.765 12.5793C38.7415 12.6012 38.7128 12.6177 38.6812 12.6275C38.6496 12.6373 38.616 12.64 38.5831 12.6356H36.8608C36.833 12.6393 36.8046 12.6379 36.7774 12.6315C36.7502 12.6251 36.7246 12.6137 36.7021 12.598C36.6796 12.5824 36.6606 12.5628 36.6462 12.5403C36.6319 12.5178 36.6224 12.4929 36.6184 12.467C36.6155 12.4481 36.6155 12.4289 36.6184 12.41V3.59787C36.6184 3.43861 36.6992 3.35899 36.8608 3.35899H38.5831C38.7447 3.35899 38.8255 3.43861 38.8255 3.59787V12.41ZM45.488 11.1777C45.8497 11.1777 46.1824 11.1711 46.486 11.1578C46.7897 11.1445 47.1029 11.1158 47.4256 11.0716C47.4483 11.0662 47.4719 11.0652 47.495 11.0685C47.5181 11.0718 47.5402 11.0793 47.5602 11.0907C47.5801 11.1021 47.5974 11.117 47.611 11.1347C47.6246 11.1524 47.6343 11.1724 47.6395 11.1936C47.6437 11.2145 47.6437 11.2359 47.6395 11.2567V12.252C47.6395 12.3668 47.5639 12.4464 47.4114 12.4909C47.0392 12.5977 46.6574 12.673 46.2707 12.7159C45.86 12.7669 45.4462 12.7935 45.0318 12.7955C44.3663 12.8121 43.7037 12.7085 43.0806 12.4902C42.5751 12.3049 42.1292 12.0019 41.7853 11.6104C41.4374 11.194 41.1903 10.7125 41.061 10.199C40.9015 9.57862 40.8249 8.94232 40.8329 8.3045V7.69469C40.8251 7.05725 40.8993 6.42124 41.0539 5.80023C41.1792 5.28733 41.4224 4.80581 41.7668 4.38883C42.1064 3.99554 42.5504 3.69156 43.055 3.50696C43.678 3.28875 44.3406 3.18509 45.0061 3.20172C45.7811 3.2066 46.5506 3.32299 47.2873 3.54678C47.3527 3.5618 47.4121 3.59405 47.4584 3.63967C47.489 3.68261 47.504 3.73354 47.5012 3.78499V4.73587C47.5086 4.77833 47.4979 4.82181 47.4712 4.85695C47.4445 4.89208 47.4041 4.91604 47.3586 4.92366C47.3351 4.92799 47.3108 4.92799 47.2873 4.92366C47.0212 4.88916 46.7317 4.86261 46.419 4.84404C46.1063 4.82546 45.7884 4.81683 45.4652 4.81816C45.0749 4.80752 44.6859 4.86583 44.3189 4.99002C44.0181 5.09951 43.7582 5.2884 43.5711 5.53348C43.3668 5.8149 43.2286 6.13325 43.1655 6.46777C43.0787 6.90719 43.0383 7.35346 43.045 7.8002V8.21094C43.0378 8.65678 43.0796 9.10213 43.1697 9.54005C43.2358 9.87434 43.3791 10.1913 43.5896 10.469C43.7838 10.7115 44.0481 10.8974 44.3517 11.0052C44.7169 11.1288 45.1038 11.1873 45.4923 11.1777H45.488ZM56.4371 3.35899C56.4686 3.35609 56.5003 3.36207 56.5282 3.37615C56.556 3.39023 56.5787 3.41176 56.5932 3.43795C56.6068 3.46616 56.6115 3.49743 56.6065 3.52802C56.6016 3.55861 56.5873 3.58723 56.5654 3.61048L53.5186 7.82807L56.9646 12.4C56.9829 12.4212 56.9945 12.4466 56.9982 12.4736C57.0018 12.5005 56.9974 12.5279 56.9853 12.5526C56.9721 12.5817 56.9489 12.6059 56.9194 12.6213C56.8898 12.6368 56.8556 12.6428 56.822 12.6382H54.8146C54.7319 12.6423 54.6493 12.6289 54.5729 12.5991C54.5074 12.5646 54.4531 12.5141 54.4161 12.4531L51.4976 8.31844V12.4133C51.5055 12.4655 51.4908 12.5186 51.4567 12.5608C51.4226 12.603 51.3719 12.6308 51.3158 12.6382C51.2959 12.6408 51.2758 12.6408 51.2559 12.6382H49.5329C49.4767 12.6456 49.4197 12.6319 49.3744 12.6002C49.3291 12.5685 49.2992 12.5213 49.2912 12.469C49.2876 12.4506 49.2876 12.4317 49.2912 12.4133V3.5972C49.2912 3.43795 49.3718 3.35832 49.5329 3.35832H51.2559C51.417 3.35832 51.4976 3.43795 51.4976 3.5972V7.33371L54.2193 3.51492C54.2557 3.46549 54.3045 3.42515 54.3616 3.39749C54.4187 3.36983 54.4822 3.35569 54.5465 3.35633L56.4371 3.35899Z" fill="#141521"/>
</g>
<defs>
<clipPath id="clip0_97_235">
<rect width="57" height="16" fill="white"/>
</clipPath>
</defs>
</svg>
