<svg width="24" height="24" viewBox="0 0 24 24" fill="none" xmlns="http://www.w3.org/2000/svg">
<path d="M7.3077 20.4998C6.80257 20.4998 6.375 20.3248 6.025 19.9748C5.675 19.6248 5.5 19.1972 5.5 18.6921V5.99981H5.25C5.03718 5.99981 4.85898 5.92802 4.7154 5.78443C4.5718 5.64085 4.5 5.46265 4.5 5.24983C4.5 5.03702 4.5718 4.85882 4.7154 4.71523C4.85898 4.57163 5.03718 4.49983 5.25 4.49983H8.99997C8.99997 4.24857 9.08779 4.03832 9.26342 3.86908C9.43907 3.69985 9.65254 3.61523 9.90382 3.61523H14.0961C14.3474 3.61523 14.5609 3.69985 14.7365 3.86908C14.9122 4.03832 15 4.24857 15 4.49983H18.75C18.9628 4.49983 19.141 4.57163 19.2845 4.71523C19.4281 4.85882 19.5 5.03702 19.5 5.24983C19.5 5.46265 19.4281 5.64085 19.2845 5.78443C19.141 5.92802 18.9628 5.99981 18.75 5.99981H18.5V18.6921C18.5 19.1972 18.325 19.6248 17.975 19.9748C17.625 20.3248 17.1974 20.4998 16.6922 20.4998H7.3077ZM6.99997 5.99981V18.6921C6.99997 18.7818 7.02883 18.8556 7.08652 18.9133C7.14423 18.971 7.21795 18.9998 7.3077 18.9998H16.6922C16.782 18.9998 16.8557 18.971 16.9134 18.9133C16.9711 18.8556 17 18.7818 17 18.6921V5.99981H6.99997ZM9.40385 16.2498C9.40385 16.4627 9.47564 16.6409 9.61922 16.7844C9.76281 16.928 9.94101 16.9998 10.1538 16.9998C10.3666 16.9998 10.5448 16.928 10.6884 16.7844C10.832 16.6409 10.9038 16.4627 10.9038 16.2498V8.74979C10.9038 8.53697 10.832 8.35877 10.6884 8.21518C10.5448 8.0716 10.3666 7.99981 10.1538 7.99981C9.94101 7.99981 9.76281 8.0716 9.61922 8.21518C9.47564 8.35877 9.40385 8.53697 9.40385 8.74979V16.2498ZM13.0961 16.2498C13.0961 16.4627 13.1679 16.6409 13.3115 16.7844C13.4551 16.928 13.6333 16.9998 13.8461 16.9998C14.0589 16.9998 14.2371 16.928 14.3807 16.7844C14.5243 16.6409 14.5961 16.4627 14.5961 16.2498V8.74979C14.5961 8.53697 14.5243 8.35877 14.3807 8.21518C14.2371 8.0716 14.0589 7.99981 13.8461 7.99981C13.6333 7.99981 13.4551 8.0716 13.3115 8.21518C13.1679 8.35877 13.0961 8.53697 13.0961 8.74979V16.2498ZM6.99997 5.99981V18.6921C6.99997 18.7818 7.02883 18.8556 7.08652 18.9133C7.14423 18.971 7.21795 18.9998 7.3077 18.9998H6.99997V5.99981Z" fill="#FF0000"/>
</svg>
