<svg width="28" height="28" viewBox="0 0 28 28" fill="none" xmlns="http://www.w3.org/2000/svg">
<path d="M7.92375 13.6759L7.62637 12.2885C7.61669 12.2433 7.5982 12.2005 7.57197 12.1625C7.54573 12.1245 7.51227 12.092 7.47348 12.0669C7.43469 12.0418 7.39134 12.0246 7.34591 12.0163C7.30047 12.0079 7.25384 12.0086 7.20867 12.0183C7.1635 12.028 7.12069 12.0465 7.08266 12.0727C7.04464 12.0989 7.01216 12.1324 6.98707 12.1712C6.96198 12.21 6.94478 12.2533 6.93644 12.2988C6.9281 12.3442 6.9288 12.3908 6.93848 12.436L7.23591 13.8234C7.2555 13.9146 7.31049 13.9942 7.38881 14.0449C7.46712 14.0956 7.56235 14.1131 7.65356 14.0936C7.69873 14.0839 7.74155 14.0654 7.77957 14.0392C7.8176 14.013 7.85008 13.9795 7.87517 13.9407C7.90026 13.9019 7.91746 13.8586 7.9258 13.8131C7.93413 13.7677 7.93344 13.7211 7.92375 13.6759ZM9.07701 12.9872L8.77964 11.5998C8.75903 11.5096 8.70375 11.4312 8.62576 11.3815C8.54777 11.3318 8.45335 11.3148 8.36292 11.3342C8.2725 11.3536 8.19334 11.4078 8.14259 11.4851C8.09184 11.5625 8.07358 11.6566 8.09175 11.7473L8.38917 13.1347C8.40876 13.2259 8.46376 13.3056 8.54207 13.3562C8.62038 13.4069 8.71561 13.4244 8.80683 13.4049C8.85199 13.3952 8.89481 13.3767 8.93284 13.3505C8.97086 13.3243 9.00334 13.2908 9.02843 13.252C9.05352 13.2132 9.07073 13.1699 9.07906 13.1244C9.0874 13.079 9.0867 13.0324 9.07701 12.9872ZM10.2302 12.2985L9.93286 10.9111C9.92318 10.8659 9.90469 10.8231 9.87847 10.7851C9.85224 10.7471 9.81878 10.7146 9.77999 10.6895C9.74121 10.6644 9.69787 10.6472 9.65243 10.6389C9.607 10.6305 9.56037 10.6312 9.5152 10.6409C9.47003 10.6506 9.42721 10.669 9.38919 10.6953C9.35116 10.7215 9.31868 10.755 9.29358 10.7937C9.26849 10.8325 9.25128 10.8759 9.24294 10.9213C9.2346 10.9667 9.23529 11.0134 9.24497 11.0585L9.54234 12.4459C9.56193 12.5371 9.61693 12.6168 9.69524 12.6674C9.77356 12.7181 9.86878 12.7356 9.96 12.7161C10.0052 12.7065 10.048 12.688 10.086 12.6617C10.124 12.6355 10.1565 12.6021 10.1816 12.5633C10.2067 12.5245 10.2239 12.4811 10.2323 12.4357C10.2406 12.3903 10.2399 12.3436 10.2302 12.2985ZM11.3834 11.6098L11.086 10.2224C11.0654 10.1322 11.0101 10.0538 10.9321 10.0041C10.8542 9.9544 10.7597 9.9374 10.6693 9.9568C10.5789 9.97619 10.4997 10.0304 10.449 10.1077C10.3982 10.185 10.38 10.2792 10.3981 10.3699L10.6956 11.7573C10.7152 11.8485 10.7701 11.9281 10.8485 11.9788C10.9268 12.0295 11.022 12.047 11.1132 12.0275C11.1584 12.0178 11.2012 11.9993 11.2392 11.9731C11.2772 11.9469 11.3097 11.9134 11.3348 11.8746C11.3599 11.8358 11.3771 11.7925 11.3854 11.747C11.3938 11.7016 11.3931 11.655 11.3834 11.6098Z" fill="#AEBCCB"/>
<path d="M24.5142 4.88012L23.0441 2.41857C22.8011 2.01174 22.2725 1.87839 21.8656 2.12138L4.77504 12.328C4.41059 12.5457 4.15268 12.8922 4.0489 13.3039C3.94507 13.7155 4.00779 14.1429 4.22548 14.5073L5.29273 16.2944C5.30337 16.3123 5.31471 16.3294 5.3262 16.3466L5.33206 16.3554L5.33215 16.3555L5.3322 16.3556C5.65076 16.8349 6.21462 17.0919 6.80412 17.0267C7.21676 16.9814 7.6061 17.2497 7.70974 17.6518L9.61793 25.052C9.71782 25.4393 9.98693 25.7493 10.3563 25.9025C10.51 25.9667 10.6749 25.9998 10.8414 26C11.0624 26 11.2819 25.941 11.48 25.8244L14.8614 23.8337C15.3436 23.5498 15.5828 22.9731 15.4431 22.4312L14.5025 18.7837C14.3353 18.1349 14.6191 17.4494 15.1922 17.1169C15.2024 17.1109 15.2125 17.105 15.2226 17.0989L18.4341 15.181C19.5125 14.537 19.8659 13.1356 19.2219 12.0573L18.5061 10.8588C18.4972 10.8439 18.4982 10.8297 18.5005 10.8204C18.5028 10.8112 18.5088 10.7982 18.5237 10.7893L23.7709 7.65554C24.2157 7.38994 24.3614 6.81207 24.0959 6.36722L23.7316 5.75724L24.3926 5.36246C24.4726 5.3146 24.5304 5.23691 24.5532 5.14647C24.5761 5.05602 24.562 4.96022 24.5142 4.88012ZM20.4668 7.29727C20.4905 7.33693 20.5218 7.37154 20.5588 7.39912C20.5959 7.4267 20.638 7.44671 20.6828 7.45801C20.7276 7.4693 20.7742 7.47166 20.8199 7.46496C20.8656 7.45825 20.9095 7.4426 20.9492 7.41891L23.1275 6.11799L23.4918 6.72793C23.5239 6.78168 23.5333 6.84594 23.518 6.90662C23.5027 6.96729 23.4639 7.01941 23.4102 7.05155L18.163 10.1853C18.0777 10.2358 18.0034 10.3028 17.9442 10.3823C17.8851 10.4618 17.8423 10.5523 17.8183 10.6484C17.7938 10.7444 17.7886 10.8443 17.803 10.9424C17.8174 11.0404 17.8511 11.1346 17.9021 11.2196L18.6178 12.418C18.8334 12.7791 18.8956 13.2025 18.7927 13.6103C18.6899 14.0181 18.4344 14.3614 18.0734 14.577L14.8618 16.495L14.8396 16.5081C13.9943 16.9985 13.5756 18.0065 13.8213 18.9594L14.7618 22.6069C14.8236 22.8467 14.7177 23.1018 14.5044 23.2274L11.123 25.2181C11.0486 25.2623 10.9649 25.2884 10.8786 25.2945C10.7922 25.3005 10.7057 25.2862 10.6259 25.2527C10.5458 25.2198 10.4745 25.1687 10.4178 25.1033C10.361 25.038 10.3204 24.9603 10.2991 24.8764L8.39093 17.4761C8.20043 16.7372 7.48521 16.2435 6.72649 16.3275C6.53848 16.3482 6.35562 16.3112 6.20159 16.2263L19.5421 8.25919C19.6207 8.21065 19.6771 8.13311 19.699 8.04335C19.721 7.95358 19.7067 7.85879 19.6593 7.77945C19.6119 7.70012 19.5352 7.64261 19.4458 7.61936C19.3564 7.59612 19.2614 7.60899 19.1814 7.65521L5.74498 15.6795L4.82946 14.1466C4.76953 14.0469 4.72997 13.9362 4.71308 13.8211C4.69619 13.7059 4.70231 13.5886 4.73107 13.4759C4.75922 13.363 4.80949 13.2567 4.87896 13.1634C4.94843 13.07 5.03572 12.9914 5.13579 12.932L22.2264 2.72532C22.2619 2.70417 22.3044 2.69798 22.3444 2.70809C22.3845 2.71821 22.4189 2.74381 22.4401 2.77927L23.7299 4.9388L20.5884 6.81488C20.5084 6.86272 20.4505 6.94042 20.4277 7.03088C20.4049 7.12135 20.419 7.21717 20.4668 7.29727Z" fill="#AEBCCB"/>
<path d="M14.2049 22.2367L12.5827 15.9541C12.5306 15.7517 12.3898 15.5901 12.1964 15.5106C12.0032 15.4311 11.7893 15.447 11.6099 15.5542L9.21335 16.9854C8.96492 17.1338 8.84182 17.4331 8.91406 17.7134L10.5513 24.063C10.5763 24.1618 10.6241 24.2532 10.6909 24.3301C10.7577 24.407 10.8415 24.4672 10.9357 24.5058C11.0157 24.5392 11.1015 24.5564 11.1881 24.5565C11.3032 24.5565 11.4175 24.5258 11.5205 24.4651L13.8495 23.094C14.1443 22.9205 14.2904 22.568 14.2049 22.2367ZM13.4926 22.4879L11.217 23.8275L9.60396 17.5717L11.9171 16.1902L13.5237 22.4126C13.5274 22.4268 13.5263 22.4418 13.5207 22.4554C13.5151 22.469 13.5052 22.4804 13.4926 22.4879ZM18.2358 12.6838L17.5034 11.4576C17.4529 11.3723 17.3859 11.298 17.3064 11.2388C17.2269 11.1796 17.1365 11.1368 17.0403 11.1129C16.9443 11.0884 16.8444 11.0832 16.7463 11.0975C16.6483 11.1119 16.5541 11.1456 16.4691 11.1967L13.7803 12.8025C12.9913 13.2736 12.6005 14.2242 12.83 15.1141L12.9043 15.4024C12.9923 15.7435 13.2296 16.0168 13.5553 16.1523C13.6891 16.2084 13.8327 16.2374 13.9778 16.2376C14.1678 16.2376 14.3563 16.1872 14.5267 16.0874L17.8829 14.083C18.366 13.7946 18.5242 13.1669 18.2358 12.6838ZM17.5222 13.479L14.1772 15.4766L14.1696 15.4811C14.0652 15.5423 13.9398 15.5502 13.8255 15.5027C13.7668 15.4786 13.7145 15.4411 13.6728 15.3932C13.6311 15.3452 13.6013 15.2882 13.5856 15.2267L13.5113 14.9384C13.4376 14.6528 13.4612 14.358 13.5636 14.0942L13.7813 14.2411C14.0313 14.4097 14.3225 14.4946 14.6142 14.4946C14.8827 14.4949 15.1462 14.4225 15.3769 14.2851L15.7262 14.0765C15.8048 14.0279 15.8612 13.9504 15.8831 13.8606C15.905 13.7709 15.8908 13.6761 15.8434 13.5967C15.796 13.5174 15.7193 13.4599 15.6299 13.4366C15.5404 13.4134 15.4454 13.4263 15.3654 13.4725L15.0161 13.6811C14.7562 13.8364 14.4259 13.8272 14.1748 13.6579L13.9758 13.5236C14.0279 13.4805 14.0831 13.4413 14.1411 13.4064L16.8299 11.8006C16.8356 11.7971 16.842 11.7948 16.8486 11.7938C16.8552 11.7929 16.8619 11.7933 16.8684 11.795C16.8776 11.7973 16.8906 11.8032 16.8994 11.8182L17.6318 13.0445C17.6748 13.1166 17.6874 13.2029 17.6669 13.2844C17.6463 13.3658 17.5943 13.4358 17.5222 13.479Z" fill="#AEBCCB"/>
</svg>
