<svg width="32" height="32" viewBox="0 0 32 32" fill="none" xmlns="http://www.w3.org/2000/svg">
<rect width="32" height="32" rx="8" fill="#35454A"/>
<path fill-rule="evenodd" clip-rule="evenodd" d="M23.5 15.75C23.5 15.3358 23.1642 15 22.75 15H8.75C8.33579 15 8 15.3358 8 15.75C8 16.1642 8.33579 16.5 8.75 16.5H22.75C23.1642 16.5 23.5 16.1642 23.5 15.75Z" fill="white"/>
<path fill-rule="evenodd" clip-rule="evenodd" d="M23.5 10.75C23.5 10.3358 23.1642 10 22.75 10H8.75C8.33579 10 8 10.3358 8 10.75C8 11.1642 8.33579 11.5 8.75 11.5H22.75C23.1642 11.5 23.5 11.1642 23.5 10.75Z" fill="white"/>
<path fill-rule="evenodd" clip-rule="evenodd" d="M23.5 20.75C23.5 20.3358 23.1642 20 22.75 20H8.75C8.33579 20 8 20.3358 8 20.75C8 21.1642 8.33579 21.5 8.75 21.5H22.75C23.1642 21.5 23.5 21.1642 23.5 20.75Z" fill="white"/>
</svg>
