<svg width="28" height="28" viewBox="0 0 28 28" fill="none" xmlns="http://www.w3.org/2000/svg">
<g id="new_releases_FILL1_wght300_GRAD0_opsz24 1">
<path id="Vector" d="M12.775 15.243L10.8814 13.3673C10.7198 13.2058 10.5198 13.1232 10.2812 13.1194C10.0427 13.1157 9.83289 13.2043 9.65192 13.3853C9.48289 13.5543 9.39837 13.7592 9.39837 14C9.39837 14.2408 9.48289 14.4457 9.65192 14.6147L12.0368 16.9997C12.2477 17.2106 12.4938 17.316 12.775 17.316C13.0562 17.316 13.3022 17.2106 13.5131 16.9997L18.348 12.1647C18.5215 11.9912 18.6072 11.7882 18.6049 11.5556C18.6027 11.323 18.517 11.1163 18.348 10.9353C18.167 10.7543 17.9591 10.6608 17.7243 10.6548C17.4895 10.6489 17.2816 10.7364 17.1006 10.9173L12.775 15.243ZM9.8112 24.7131L8.19808 22.0006L5.1468 21.3455C4.88504 21.2946 4.67602 21.157 4.51972 20.9327C4.36343 20.7083 4.30098 20.4653 4.33238 20.2035L4.63079 17.0647L2.55546 14.691C2.37599 14.4996 2.28625 14.2692 2.28625 14C2.28625 13.7308 2.37599 13.5004 2.55546 13.309L4.63079 10.9353L4.33238 7.79652C4.30098 7.53476 4.36343 7.29171 4.51972 7.06736C4.67602 6.84299 4.88504 6.70538 5.1468 6.65453L8.19808 5.99942L9.8112 3.28692C9.9518 3.05658 10.1433 2.89953 10.3856 2.81576C10.6279 2.73201 10.8739 2.74473 11.1237 2.85391L14 4.06993L16.8762 2.85391C17.126 2.74473 17.3721 2.73201 17.6144 2.81576C17.8567 2.89953 18.0481 3.05658 18.1887 3.28692L19.8019 5.99942L22.8531 6.65453C23.1149 6.70538 23.3239 6.84299 23.4802 7.06736C23.6365 7.29171 23.699 7.53476 23.6676 7.79652L23.3691 10.9353L25.4445 13.309C25.624 13.5004 25.7137 13.7308 25.7137 14C25.7137 14.2692 25.624 14.4996 25.4445 14.691L23.3691 17.0647L23.6676 20.2035C23.699 20.4653 23.6365 20.7083 23.4802 20.9327C23.3239 21.157 23.1149 21.2946 22.8531 21.3455L19.8019 22.0006L18.1887 24.7131C18.0481 24.9434 17.8567 25.1005 17.6144 25.1843C17.3721 25.268 17.126 25.2553 16.8762 25.1461L14 23.9301L11.1237 25.1461C10.8739 25.2553 10.6279 25.268 10.3856 25.1843C10.1433 25.1005 9.9518 24.9434 9.8112 24.7131Z" fill="#00AE30"/>
</g>
</svg>
