<svg width="24" height="24" viewBox="0 0 24 24" fill="none" xmlns="http://www.w3.org/2000/svg">
<path d="M15.9996 8.30759V5.30759H7.99956V8.30759H6.49959V4.70744C6.49959 4.45243 6.58621 4.2387 6.75946 4.06627C6.93269 3.89383 7.14735 3.80762 7.40344 3.80762H16.5917C16.852 3.80762 17.0684 3.89387 17.2409 4.06637C17.4133 4.23887 17.4995 4.45262 17.4995 4.70762V8.30759H15.9996ZM17.8072 12.3075C18.0906 12.3075 18.3281 12.2117 18.5197 12.02C18.7114 11.8284 18.8072 11.5909 18.8072 11.3075C18.8072 11.0242 18.7114 10.7867 18.5197 10.595C18.3281 10.4034 18.0906 10.3075 17.8072 10.3075C17.5239 10.3075 17.2864 10.4034 17.0947 10.595C16.9031 10.7867 16.8072 11.0242 16.8072 11.3075C16.8072 11.5909 16.9031 11.8284 17.0947 12.02C17.2864 12.2117 17.5239 12.3075 17.8072 12.3075ZM8.30729 18.9999H15.6918C15.7816 18.9999 15.8553 18.971 15.913 18.9133C15.9707 18.8556 15.9996 18.7819 15.9996 18.6921V14.7306H7.99956V18.6921C7.99956 18.7819 8.02841 18.8556 8.08611 18.9133C8.14381 18.971 8.21754 18.9999 8.30729 18.9999ZM8.30729 20.4998C7.81017 20.4998 7.38461 20.3228 7.03061 19.9688C6.67659 19.6148 6.49959 19.1893 6.49959 18.6921V16.4998H3.69191C3.43583 16.4998 3.22117 16.4132 3.04794 16.24C2.8747 16.0667 2.78809 15.8521 2.78809 15.596V10.8075C2.78809 10.0992 3.03007 9.50548 3.51404 9.02632C3.998 8.54717 4.58934 8.30759 5.28804 8.30759H18.7111C19.4194 8.30759 20.0131 8.54717 20.4923 9.02632C20.9715 9.50548 21.211 10.0992 21.211 10.8075V15.596C21.211 15.8521 21.1244 16.0667 20.9512 16.24C20.778 16.4132 20.5633 16.4998 20.3072 16.4998H17.4995V18.6921C17.4995 19.1893 17.3225 19.6148 16.9685 19.9688C16.6145 20.3228 16.189 20.4998 15.6918 20.4998H8.30729ZM19.7111 14.9999V10.8075C19.7111 10.5242 19.6153 10.2867 19.4236 10.095C19.2319 9.90338 18.9944 9.80754 18.7111 9.80754H5.28804C5.0047 9.80754 4.7672 9.90338 4.57554 10.095C4.38387 10.2867 4.28804 10.5242 4.28804 10.8075V14.9999H6.49959V13.2306H17.4995V14.9999H19.7111Z" fill="#0A97BC"/>
</svg>
