<svg width="24" height="24" viewBox="0 0 24 24" fill="none" xmlns="http://www.w3.org/2000/svg">
<path d="M6.89423 13.75H7.99227C8.11279 13.75 8.22753 13.7256 8.3365 13.6769C8.44548 13.6282 8.54164 13.5621 8.62498 13.4788L14.1384 8.01535C14.232 7.92177 14.2788 7.81279 14.2788 7.68843C14.2788 7.56408 14.232 7.4551 14.1384 7.3615L12.8308 6.05385C12.7372 5.96027 12.6282 5.91348 12.5039 5.91348C12.3795 5.91348 12.2705 5.96027 12.1769 6.05385L6.71348 11.5673C6.63014 11.6506 6.56412 11.7468 6.5154 11.8558C6.46668 11.9647 6.44233 12.0795 6.44233 12.2V13.298C6.44233 13.4185 6.48752 13.524 6.5779 13.6144C6.66828 13.7048 6.77373 13.75 6.89423 13.75ZM10.9039 13.75H17C17.2128 13.75 17.391 13.6782 17.5346 13.5346C17.6782 13.391 17.75 13.2128 17.75 13C17.75 12.7872 17.6782 12.609 17.5346 12.4654C17.391 12.3218 17.2128 12.25 17 12.25H12.4038L10.9039 13.75ZM6.03845 17.5L4.03655 19.5019C3.75193 19.7865 3.42469 19.8509 3.05483 19.6951C2.68494 19.5393 2.5 19.2589 2.5 18.8538V4.3077C2.5 3.80257 2.675 3.375 3.025 3.025C3.375 2.675 3.80257 2.5 4.3077 2.5H19.6923C20.1974 2.5 20.625 2.675 20.975 3.025C21.325 3.375 21.5 3.80257 21.5 4.3077V15.6923C21.5 16.1974 21.325 16.625 20.975 16.975C20.625 17.325 20.1974 17.5 19.6923 17.5H6.03845ZM4.69233 16H19.6923C19.7692 16 19.8397 15.9679 19.9038 15.9038C19.9679 15.8397 20 15.7692 20 15.6923V4.3077C20 4.23077 19.9679 4.16024 19.9038 4.09613C19.8397 4.03203 19.7692 3.99998 19.6923 3.99998H4.3077C4.23077 3.99998 4.16024 4.03203 4.09613 4.09613C4.03202 4.16024 3.99998 4.23077 3.99998 4.3077V16.6923L4.69233 16Z" fill="white"/>
</svg>
