<svg width="20" height="20" viewBox="0 0 20 20" fill="none" xmlns="http://www.w3.org/2000/svg">
<path d="M10.6246 9.74681V6.45833C10.6246 6.28126 10.5647 6.13283 10.4449 6.01304C10.325 5.89325 10.1765 5.83335 9.99938 5.83335C9.82222 5.83335 9.67381 5.89325 9.55415 6.01304C9.4345 6.13283 9.37468 6.28126 9.37468 6.45833V9.93913C9.37468 10.0372 9.39283 10.1323 9.42915 10.2242C9.46547 10.3162 9.52263 10.4012 9.60063 10.4792L12.4548 13.3334C12.5702 13.4487 12.7152 13.5078 12.8899 13.5104C13.0646 13.5131 13.2123 13.4541 13.333 13.3334C13.4537 13.2126 13.5141 13.0663 13.5141 12.8943C13.5141 12.7223 13.4537 12.5759 13.333 12.4552L10.6246 9.74681ZM10.001 17.9167C8.90611 17.9167 7.87691 17.7089 6.91347 17.2933C5.95001 16.8778 5.11194 16.3138 4.39926 15.6015C3.68656 14.8891 3.12235 14.0514 2.70661 13.0884C2.29088 12.1253 2.08301 11.0964 2.08301 10.0014C2.08301 8.90647 2.29079 7.87728 2.70634 6.91383C3.1219 5.95037 3.68586 5.11231 4.39822 4.39963C5.11059 3.68693 5.94829 3.12272 6.91132 2.70698C7.87433 2.29124 8.90331 2.08337 9.99826 2.08337C11.0932 2.08337 12.1224 2.29115 13.0858 2.70671C14.0493 3.12226 14.8874 3.68622 15.6001 4.39858C16.3127 5.11096 16.877 5.94866 17.2927 6.91169C17.7084 7.8747 17.9163 8.90368 17.9163 9.99863C17.9163 11.0936 17.7085 12.1228 17.293 13.0862C16.8774 14.0497 16.3135 14.8877 15.6011 15.6004C14.8887 16.3131 14.051 16.8773 13.088 17.2931C12.125 17.7088 11.096 17.9167 10.001 17.9167ZM9.99965 16.6667C11.8469 16.6667 13.4198 16.0174 14.7184 14.7188C16.017 13.4202 16.6663 11.8472 16.6663 10C16.6663 8.1528 16.017 6.57988 14.7184 5.28127C13.4198 3.98266 11.8469 3.33335 9.99965 3.33335C8.15243 3.33335 6.57951 3.98266 5.2809 5.28127C3.98229 6.57988 3.33299 8.1528 3.33299 10C3.33299 11.8472 3.98229 13.4202 5.2809 14.7188C6.57951 16.0174 8.15243 16.6667 9.99965 16.6667Z" fill="white" fill-opacity="0.5"/>
</svg>
