<svg width="20" height="20" viewBox="0 0 20 20" fill="none" xmlns="http://www.w3.org/2000/svg">
<path d="M6.66632 9.07052C6.87038 9.07052 7.04425 8.99867 7.18795 8.85498C7.33164 8.71128 7.40349 8.53741 7.40349 8.33335C7.40349 8.1293 7.33164 7.95542 7.18795 7.81173C7.04425 7.66803 6.87038 7.59619 6.66632 7.59619C6.46227 7.59619 6.28839 7.66803 6.1447 7.81173C6.001 7.95542 5.92915 8.1293 5.92915 8.33335C5.92915 8.53741 6.001 8.71128 6.1447 8.85498C6.28839 8.99867 6.46227 9.07052 6.66632 9.07052ZM9.99965 9.07052C10.2037 9.07052 10.3776 8.99867 10.5213 8.85498C10.665 8.71128 10.7368 8.53741 10.7368 8.33335C10.7368 8.1293 10.665 7.95542 10.5213 7.81173C10.3776 7.66803 10.2037 7.59619 9.99965 7.59619C9.7956 7.59619 9.62172 7.66803 9.47803 7.81173C9.33433 7.95542 9.26249 8.1293 9.26249 8.33335C9.26249 8.53741 9.33433 8.71128 9.47803 8.85498C9.62172 8.99867 9.7956 9.07052 9.99965 9.07052ZM13.333 9.07052C13.537 9.07052 13.7109 8.99867 13.8546 8.85498C13.9983 8.71128 14.0702 8.53741 14.0702 8.33335C14.0702 8.1293 13.9983 7.95542 13.8546 7.81173C13.7109 7.66803 13.537 7.59619 13.333 7.59619C13.1289 7.59619 12.9551 7.66803 12.8114 7.81173C12.6677 7.95542 12.5958 8.1293 12.5958 8.33335C12.5958 8.53741 12.6677 8.71128 12.8114 8.85498C12.9551 8.99867 13.1289 9.07052 13.333 9.07052ZM5.03172 14.5833L3.36347 16.2516C3.12629 16.4887 2.85358 16.5424 2.54536 16.4126C2.23713 16.2828 2.08301 16.0491 2.08301 15.7115V3.58979C2.08301 3.16885 2.22884 2.81254 2.52051 2.52087C2.81217 2.22921 3.16848 2.08337 3.58942 2.08337H16.4099C16.8308 2.08337 17.1871 2.22921 17.4788 2.52087C17.7705 2.81254 17.9163 3.16885 17.9163 3.58979V13.0769C17.9163 13.4979 17.7705 13.8542 17.4788 14.1458C17.1871 14.4375 16.8308 14.5833 16.4099 14.5833H5.03172ZM3.90995 13.3334H16.4099C16.474 13.3334 16.5328 13.3066 16.5862 13.2532C16.6396 13.1998 16.6663 13.141 16.6663 13.0769V3.58979C16.6663 3.52568 16.6396 3.46691 16.5862 3.41348C16.5328 3.36006 16.474 3.33335 16.4099 3.33335H3.58942C3.52531 3.33335 3.46654 3.36006 3.41311 3.41348C3.3597 3.46691 3.33299 3.52568 3.33299 3.58979V13.9103L3.90995 13.3334Z" fill="white"/>
</svg>
