<svg width="20" height="20" viewBox="0 0 20 20" fill="none" xmlns="http://www.w3.org/2000/svg">
<path d="M9.69297 13.6884L5.8026 16.0345C5.65773 16.1191 5.51255 16.1547 5.36705 16.1412C5.22153 16.1278 5.0898 16.0787 4.97185 15.9941C4.85391 15.9095 4.7629 15.7989 4.6988 15.6624C4.63468 15.5259 4.62442 15.3749 4.66802 15.2095L5.7007 10.7922L2.2661 7.81916C2.1379 7.70763 2.05617 7.57847 2.02092 7.43169C1.98567 7.28489 1.99496 7.14226 2.0488 7.00381C2.10265 6.86535 2.18021 6.75221 2.2815 6.66439C2.38278 6.57657 2.52124 6.51921 2.69687 6.49229L7.22955 6.09614L8.98915 1.92499C9.05325 1.76987 9.15036 1.65513 9.28047 1.58076C9.41061 1.50641 9.54811 1.46924 9.69297 1.46924C9.83784 1.46924 9.97534 1.50641 10.1055 1.58076C10.2356 1.65513 10.3327 1.76987 10.3968 1.92499L12.1564 6.09614L16.6891 6.49229C16.8647 6.51921 17.0032 6.57657 17.1044 6.66439C17.2057 6.75221 17.2833 6.86535 17.3371 7.00381C17.391 7.14226 17.4003 7.28489 17.365 7.43169C17.3298 7.57847 17.248 7.70763 17.1198 7.81916L13.6852 10.7922L14.7179 15.2095C14.7615 15.3749 14.7513 15.5259 14.6871 15.6624C14.623 15.7989 14.532 15.9095 14.4141 15.9941C14.2961 16.0787 14.1644 16.1278 14.0189 16.1412C13.8734 16.1547 13.7282 16.1191 13.5833 16.0345L9.69297 13.6884Z" fill="#0A97BC"/>
</svg>
