<svg width="20" height="20" viewBox="0 0 20 20" fill="none" xmlns="http://www.w3.org/2000/svg">
<g clip-path="url(#clip0_78_5100)">
<rect width="20" height="20" rx="10" fill="white"/>
<path fill-rule="evenodd" clip-rule="evenodd" d="M87.5156 0H0V87.5156H87.5156V0ZM10.0647 15.5281C13.0824 15.5281 15.5287 13.0818 15.5287 10.064C15.5287 7.04633 13.0824 4.59998 10.0647 4.59998C7.04694 4.59998 4.60059 7.04633 4.60059 10.064C4.60059 13.0818 7.04694 15.5281 10.0647 15.5281ZM6.67696 10.4471C6.67696 10.4471 6.30149 10.2039 6.94294 9.94437C6.94294 9.94437 9.64956 8.79288 10.5883 8.38741C10.9481 8.22524 12.1684 7.70624 12.1684 7.70624C12.1684 7.70624 12.7317 7.4792 12.6847 8.03061C12.6734 8.19459 12.605 8.65459 12.5207 9.22127L12.5207 9.22171C12.4883 9.4396 12.4535 9.67327 12.4188 9.91193C12.231 11.1283 12.0276 12.4582 12.0276 12.4582C12.0276 12.4582 11.9963 12.8312 11.7304 12.8961C11.4644 12.961 11.0263 12.6691 10.9481 12.6042C10.9345 12.5936 10.8716 12.551 10.7773 12.4871L10.7772 12.4871L10.7772 12.4871C10.4366 12.2564 9.68645 11.7483 9.36794 11.4689C9.25842 11.3716 9.13327 11.177 9.38358 10.9499C9.94682 10.4147 10.6196 9.74976 11.0263 9.32809C11.2141 9.13346 11.4018 8.67935 10.6196 9.23076C9.50875 10.0255 8.41359 10.7715 8.41359 10.7715C8.41359 10.7715 8.16326 10.9337 7.69391 10.7877C7.22454 10.6418 6.67696 10.4471 6.67696 10.4471Z" fill="#34AADF"/>
</g>
<defs>
<clipPath id="clip0_78_5100">
<rect width="20" height="20" rx="10" fill="white"/>
</clipPath>
</defs>
</svg>
