<svg width="20" height="20" viewBox="0 0 20 20" fill="none" xmlns="http://www.w3.org/2000/svg">
<path fill-rule="evenodd" clip-rule="evenodd" d="M4.82332 11.683C4.85979 11.6954 4.89661 11.704 4.93339 11.7094C4.97351 11.8037 5.02533 11.9256 5.0858 12.0682C5.23337 12.4162 5.43219 12.887 5.63742 13.378C6.05596 14.3794 6.47813 15.4116 6.57138 15.7071C6.6868 16.0724 6.80881 16.3207 6.942 16.4903C7.01088 16.578 7.09053 16.6545 7.18373 16.7125C7.23064 16.7416 7.28021 16.7655 7.33194 16.7834C7.33422 16.7842 7.33649 16.785 7.33877 16.7857C7.60545 16.8864 7.84858 16.8445 8.00081 16.7932C8.08226 16.7657 8.14816 16.7326 8.19487 16.7058C8.21868 16.692 8.2388 16.6793 8.25485 16.6685L8.25863 16.666L10.6138 15.1972L13.3342 17.2829C13.3744 17.3136 13.4182 17.3395 13.4646 17.3597C13.7914 17.5023 14.1078 17.552 14.4056 17.5114C14.7027 17.4708 14.9387 17.346 15.1144 17.2054C15.2864 17.0678 15.403 16.9136 15.4757 16.7991C15.5127 16.7406 15.5406 16.6889 15.5602 16.6493C15.5701 16.6294 15.578 16.6122 15.5841 16.5985L15.592 16.5803L15.5949 16.5731L15.5962 16.5701L15.5967 16.5687L15.5972 16.5674C15.6116 16.5316 15.6225 16.4946 15.63 16.4569L18.1136 3.93566C18.1215 3.89562 18.1255 3.85488 18.1255 3.81406C18.1255 3.44738 17.9873 3.09872 17.6625 2.88714C17.3848 2.70631 17.0755 2.69852 16.88 2.71336C16.6692 2.72937 16.4744 2.78142 16.3437 2.82302C16.2757 2.84467 16.2187 2.86555 16.1776 2.88148C16.1569 2.88949 16.1399 2.89637 16.1273 2.90161L16.1178 2.90559L2.18974 8.36937L2.18794 8.37004C2.17907 8.37329 2.16767 8.37754 2.15413 8.38279C2.12716 8.39329 2.09102 8.40804 2.04881 8.42721C1.96649 8.46454 1.85101 8.52279 1.7325 8.60396C1.54318 8.73362 1.10777 9.08871 1.18108 9.67479C1.23958 10.1424 1.55989 10.4295 1.75505 10.5676C1.86221 10.6435 1.96402 10.6976 2.03816 10.733C2.07255 10.7493 2.14397 10.7783 2.17495 10.791L2.18278 10.7941L4.82332 11.683ZM16.6053 4.05659L16.6033 4.05744C16.5964 4.06046 16.5894 4.06334 16.5824 4.06611L2.63737 9.53654C2.63008 9.53937 2.62275 9.54212 2.61537 9.54471L2.60761 9.54762C2.59868 9.55112 2.58367 9.55721 2.56482 9.56571C2.55413 9.57054 2.54297 9.57587 2.53159 9.58154C2.54723 9.59037 2.56218 9.59796 2.57547 9.60429C2.58823 9.61037 2.59796 9.61454 2.60328 9.61671L5.22214 10.4984C5.27008 10.5145 5.31476 10.5359 5.35578 10.5617L14.0031 5.49961L14.0112 5.49482C14.0175 5.4911 14.0257 5.48632 14.0357 5.48071C14.0553 5.46958 14.0824 5.45477 14.1146 5.4384C14.1746 5.40786 14.2706 5.36252 14.3787 5.32908C14.4541 5.30581 14.6762 5.24023 14.9162 5.31724C15.0644 5.36477 15.2178 5.46694 15.3176 5.64002C15.3672 5.72602 15.3936 5.8124 15.4063 5.89147C15.4403 6.01604 15.435 6.13905 15.4084 6.24524C15.3511 6.474 15.1903 6.65243 15.0441 6.78892C14.9188 6.90592 13.2977 8.46912 11.6984 10.0123C10.9008 10.7818 10.1114 11.5438 9.5214 12.1133L9.13382 12.4875L14.0272 16.239C14.1393 16.2791 14.2057 16.2771 14.2364 16.2729C14.273 16.2679 14.3029 16.2538 14.3335 16.2294C14.3677 16.202 14.3976 16.165 14.4199 16.1298L14.4208 16.1284L16.8296 3.98422C16.7938 3.99282 16.7577 4.00305 16.7228 4.01413C16.6833 4.02669 16.6508 4.03866 16.6292 4.04702C16.6186 4.05116 16.6109 4.0543 16.6067 4.05603L16.6053 4.05659ZM9.55423 14.3849L8.57798 13.6364L8.3414 15.1411L9.55423 14.3849ZM7.68242 12.1512L8.65323 11.214C9.24332 10.6444 10.0328 9.88237 10.8304 9.11271L11.6408 8.33087L6.20748 11.5115L6.23663 11.5803C6.38471 11.9295 6.58443 12.4023 6.79074 12.896C6.94502 13.265 7.10634 13.6537 7.25328 14.0135L7.48914 12.5132C7.51188 12.3685 7.58255 12.2434 7.68242 12.1512Z" fill="white"/>
</svg>
