<svg width="30" height="30" viewBox="0 0 30 30" fill="none" xmlns="http://www.w3.org/2000/svg">
<path d="M11.1634 12.9216H9.74749C9.49515 12.9216 9.28363 12.8362 9.11295 12.6655C8.94225 12.4947 8.85689 12.2831 8.85689 12.0306C8.85689 11.7782 8.94225 11.5667 9.11295 11.3962C9.28363 11.2257 9.49515 11.1404 9.74749 11.1404H11.1634V9.72454C11.1634 9.4722 11.2488 9.26067 11.4195 9.08997C11.5903 8.91929 11.8019 8.83395 12.0544 8.83395C12.3068 8.83395 12.5183 8.91929 12.6888 9.08997C12.8593 9.26067 12.9446 9.4722 12.9446 9.72454V11.1404H14.3605C14.6128 11.1404 14.8243 11.2258 14.995 11.3966C15.1657 11.5674 15.2511 11.779 15.2511 12.0314C15.2511 12.2839 15.1657 12.4954 14.995 12.6659C14.8243 12.8364 14.6128 12.9216 14.3605 12.9216H12.9446V14.3375C12.9446 14.5898 12.8592 14.8014 12.6884 14.9721C12.5176 15.1428 12.306 15.2281 12.0536 15.2281C11.8011 15.2281 11.5896 15.1428 11.4191 14.9721C11.2486 14.8014 11.1634 14.5898 11.1634 14.3375V12.9216ZM12.054 19.293C10.0243 19.293 8.3066 18.5903 6.90075 17.1848C5.49491 15.7793 4.79199 14.062 4.79199 12.0329C4.79199 10.0038 5.49474 8.28584 6.90022 6.87911C8.30571 5.4724 10.023 4.76904 12.0521 4.76904C14.0812 4.76904 15.7991 5.47197 17.2059 6.87781C18.6126 8.28365 19.316 10.0014 19.316 12.031C19.316 12.879 19.1736 13.689 18.8889 14.4608C18.6042 15.2327 18.2244 15.9041 17.7494 16.475L24.5821 23.3077C24.7465 23.4721 24.8306 23.6788 24.8344 23.9277C24.8382 24.1766 24.7541 24.3871 24.5821 24.5591C24.41 24.7311 24.2015 24.8172 23.9564 24.8172C23.7113 24.8172 23.5027 24.7311 23.3307 24.5591L16.498 17.7264C15.9042 18.2166 15.2214 18.6003 14.4495 18.8774C13.6776 19.1545 12.8791 19.293 12.054 19.293ZM12.054 17.5118C13.584 17.5118 14.88 16.9809 15.9419 15.919C17.0038 14.8571 17.5348 13.5611 17.5348 12.031C17.5348 10.501 17.0038 9.20499 15.9419 8.14309C14.88 7.08119 13.584 6.55023 12.054 6.55023C10.5239 6.55023 9.22794 7.08119 8.16604 8.14309C7.10415 9.20499 6.57321 10.501 6.57321 12.031C6.57321 13.5611 7.10415 14.8571 8.16604 15.919C9.22794 16.9809 10.5239 17.5118 12.054 17.5118Z" fill="#4B5A5F"/>
</svg>
